<svg width="43" height="43" viewBox="0 0 43 43" fill="none" xmlns="http://www.w3.org/2000/svg">
<circle cx="21.5" cy="21.5" r="20.5" fill="#F2F2F2" stroke="#E0E0E0" stroke-width="2"/>
<path fill-rule="evenodd" clip-rule="evenodd" d="M14.7065 22.478C15.0967 22.478 15.413 22.7943 15.413 23.1845V26.0105C15.413 26.1979 15.4874 26.3776 15.6199 26.5101C15.7524 26.6426 15.9321 26.717 16.1195 26.717H26.0105C26.1979 26.717 26.3776 26.6426 26.5101 26.5101C26.6426 26.3776 26.717 26.1979 26.717 26.0105V23.1845C26.717 22.7943 27.0333 22.478 27.4235 22.478C27.8137 22.478 28.13 22.7943 28.13 23.1845V26.0105C28.13 26.5727 27.9067 27.1118 27.5092 27.5092C27.1117 27.9067 26.5726 28.13 26.0105 28.13H16.1195C15.5574 28.13 15.0183 27.9067 14.6208 27.5092C14.2233 27.1118 14 26.5727 14 26.0105V23.1845C14 22.7943 14.3163 22.478 14.7065 22.478Z" fill="#828282"/>
<path fill-rule="evenodd" clip-rule="evenodd" d="M17.0351 19.1524C17.311 18.8765 17.7583 18.8765 18.0342 19.1524L21.0671 22.1853L24.1001 19.1524C24.376 18.8765 24.8233 18.8765 25.0992 19.1524C25.3751 19.4283 25.3751 19.8756 25.0992 20.1515L21.5667 23.684C21.2908 23.9599 20.8435 23.9599 20.5676 23.684L17.0351 20.1515C16.7591 19.8756 16.7591 19.4283 17.0351 19.1524Z" fill="#828282"/>
<path fill-rule="evenodd" clip-rule="evenodd" d="M21.0659 14C21.4561 14 21.7724 14.3163 21.7724 14.7065V23.1845C21.7724 23.5747 21.4561 23.891 21.0659 23.891C20.6757 23.891 20.3594 23.5747 20.3594 23.1845V14.7065C20.3594 14.3163 20.6757 14 21.0659 14Z" fill="#828282"/>
</svg>
